<svg width="40" height="40" viewBox="0 0 40 40" fill="none" xmlns="http://www.w3.org/2000/svg">
<path d="M37.9516 27.6285L37.9516 27.6285C39.0369 25.0814 39.5947 22.2581 39.4878 19.2906L39.4878 19.2904C39.1201 8.99352 30.6533 0.686569 20.3529 0.502649L37.9516 27.6285ZM37.9516 27.6285C37.424 28.8674 37.3594 30.2476 37.7237 31.5325L39.4212 37.5226C39.4213 37.5226 39.4213 37.5227 39.4213 37.5227C39.7497 38.6829 38.6764 39.755 37.5174 39.4245L37.517 39.4244M37.9516 27.6285L37.517 39.4244M37.517 39.4244L32.7653 38.0738C30.7461 37.4982 28.6092 37.6225 26.6498 38.3341C24.3635 39.1644 21.8811 39.5798 19.2874 39.4878C8.99357 39.1201 0.686569 30.6534 0.502649 20.3529L37.517 39.4244ZM0.502648 20.3528C0.30691 9.30337 9.30337 0.30691 20.3528 0.502648L0.502648 20.3528ZM19.9997 10.5645C14.789 10.5645 10.5645 14.789 10.5645 19.9997C10.5645 25.2104 14.789 29.4349 19.9997 29.4349C25.2104 29.4349 29.4349 25.2104 29.4349 19.9997C29.4349 14.789 25.2104 10.5645 19.9997 10.5645Z" fill="url(#paint0_linear_10103_7)" stroke="black"/>
<path d="M37.4148 29.1706L37.4148 29.1706L37.4148 29.1706L37.4357 29.2369L37.4739 29.295L37.5215 29.3674C37.4556 30.0891 37.5223 30.8264 37.7242 31.5334C37.7242 31.5335 37.7243 31.5336 37.7243 31.5337L39.4215 37.5226C39.7501 38.6854 38.677 39.7561 37.5168 39.4276L32.7656 38.077C32.7655 38.077 32.7654 38.077 32.7652 38.0769C30.7463 37.5015 28.6095 37.6258 26.6503 38.3373C24.7236 39.0364 22.6556 39.4369 20.5 39.4907V29.4221C25.4783 29.1621 29.4352 25.0429 29.4352 19.9999C29.4352 17.7738 28.6638 15.7278 27.3734 14.1147C29.3783 15.5348 31.075 17.4097 32.4776 19.3733C35.1448 23.1072 36.6868 27.0771 37.2128 28.5677C37.2802 28.7623 37.3309 28.9139 37.3647 29.0164C37.3817 29.0678 37.3944 29.1068 37.4027 29.1328L37.412 29.1618L37.4142 29.1687L37.4147 29.1703L37.4148 29.1706Z" fill="url(#paint1_linear_10103_7)" stroke="black"/>
<defs>
<linearGradient id="paint0_linear_10103_7" x1="4.85174" y1="-0.000474682" x2="40.3752" y2="2.96995" gradientUnits="userSpaceOnUse">
<stop stop-color="#DF5950"/>
<stop offset="1" stop-color="#451046"/>
</linearGradient>
<linearGradient id="paint1_linear_10103_7" x1="22.4239" y1="11.1499" x2="40.2336" y2="12.1815" gradientUnits="userSpaceOnUse">
<stop stop-color="#DF5950"/>
<stop offset="1" stop-color="#451046"/>
</linearGradient>
</defs>
</svg>
